<svg xmlns="http://www.w3.org/2000/svg" viewBox="0 0 600 600" width="600" height="600" role="img"><rect width="600" height="600" rx="22" fill="#FFF7EC"/><rect x="36" y="36" width="528" height="528" rx="18" fill="#FFFFFF" stroke="#006CB7" stroke-width="6"/><rect x="262" y="120" width="76" height="360" rx="14" fill="#FFF1D6" stroke="#C8A06A" stroke-width="3"/><circle cx="300" cy="170" r="52" fill="#F4C430"/><circle cx="300" cy="170" r="40" fill="#006CB7"/><ellipse cx="300.0" cy="141.9" rx="14.0" ry="8.3" fill="#E3000B" stroke="#F4C430" stroke-width="3" transform="rotate(-90.0 300.0 141.9)"/><ellipse cx="319.9" cy="150.1" rx="14.0" ry="8.3" fill="#FFFFFF" stroke="#F4C430" stroke-width="3" transform="rotate(-45.0 319.9 150.1)"/><ellipse cx="328.1" cy="170.0" rx="14.0" ry="8.3" fill="#00A650" stroke="#F4C430" stroke-width="3" transform="rotate(0.0 328.1 170.0)"/><ellipse cx="319.9" cy="189.9" rx="14.0" ry="8.3" fill="#FFFFFF" stroke="#F4C430" stroke-width="3" transform="rotate(45.0 319.9 189.9)"/><ellipse cx="300.0" cy="198.1" rx="14.0" ry="8.3" fill="#E3000B" stroke="#F4C430" stroke-width="3" transform="rotate(90.0 300.0 198.1)"/><ellipse cx="280.1" cy="189.9" rx="14.0" ry="8.3" fill="#FFFFFF" stroke="#F4C430" stroke-width="3" transform="rotate(135.0 280.1 189.9)"/><ellipse cx="271.9" cy="170.0" rx="14.0" ry="8.3" fill="#00A650" stroke="#F4C430" stroke-width="3" transform="rotate(180.0 271.9 170.0)"/><ellipse cx="280.1" cy="150.1" rx="14.0" ry="8.3" fill="#FFFFFF" stroke="#F4C430" stroke-width="3" transform="rotate(225.0 280.1 150.1)"/><circle cx="300" cy="170" r="16.6" fill="#006CB7" stroke="#F4C430" stroke-width="3"/><circle cx="300" cy="170" r="8.8" fill="#F4C430"/><circle cx="300" cy="170" r="4.2" fill="#006CB7"/><circle cx="300" cy="486" r="14" fill="#F4C430"/><line x1="296.0" y1="492" x2="290.0" y2="548" stroke="#006CB7" stroke-width="4" stroke-linecap="round"/><line x1="298.4" y1="492" x2="296.0" y2="548" stroke="#006CB7" stroke-width="4" stroke-linecap="round"/><line x1="300.8" y1="492" x2="302.0" y2="548" stroke="#006CB7" stroke-width="4" stroke-linecap="round"/><line x1="303.2" y1="492" x2="308.0" y2="548" stroke="#006CB7" stroke-width="4" stroke-linecap="round"/><line x1="305.6" y1="492" x2="314.0" y2="548" stroke="#006CB7" stroke-width="4" stroke-linecap="round"/><circle cx="300" cy="486" r="6" fill="#E3000B"/></svg>