<svg xmlns="http://www.w3.org/2000/svg" viewBox="0 0 600 600" width="600" height="600" role="img">
<rect width="600" height="600" rx="22" fill="#FFF7EC"/>
<rect width="600" height="600" rx="22" fill="#FFF7EC"/><rect x="40" y="40" width="520" height="440" rx="18" fill="#FFFFFF" stroke="#FFD500" stroke-width="6"/><rect x="270.0" y="110.0" width="28" height="28" rx="4" fill="#FFD500" stroke="rgba(0,0,0,.12)" stroke-width="1"/><rect x="272.0" y="112.0" width="24" height="9" rx="3" fill="rgba(255,255,255,.38)"/><rect x="300.0" y="110.0" width="28" height="28" rx="4" fill="#FFD500" stroke="rgba(0,0,0,.12)" stroke-width="1"/><rect x="302.0" y="112.0" width="24" height="9" rx="3" fill="rgba(255,255,255,.38)"/><rect x="270.0" y="140.0" width="28" height="28" rx="4" fill="#FFD500" stroke="rgba(0,0,0,.12)" stroke-width="1"/><rect x="272.0" y="142.0" width="24" height="9" rx="3" fill="rgba(255,255,255,.38)"/><rect x="300.0" y="140.0" width="28" height="28" rx="4" fill="#FFD500" stroke="rgba(0,0,0,.12)" stroke-width="1"/><rect x="302.0" y="142.0" width="24" height="9" rx="3" fill="rgba(255,255,255,.38)"/><rect x="120.0" y="170.0" width="28" height="28" rx="4" fill="#FFD500" stroke="rgba(0,0,0,.12)" stroke-width="1"/><rect x="122.0" y="172.0" width="24" height="9" rx="3" fill="rgba(255,255,255,.38)"/><rect x="150.0" y="170.0" width="28" height="28" rx="4" fill="#FFD500" stroke="rgba(0,0,0,.12)" stroke-width="1"/><rect x="152.0" y="172.0" width="24" height="9" rx="3" fill="rgba(255,255,255,.38)"/><rect x="180.0" y="170.0" width="28" height="28" rx="4" fill="#FFD500" stroke="rgba(0,0,0,.12)" stroke-width="1"/><rect x="182.0" y="172.0" width="24" height="9" rx="3" fill="rgba(255,255,255,.38)"/><rect x="210.0" y="170.0" width="28" height="28" rx="4" fill="#FFD500" stroke="rgba(0,0,0,.12)" stroke-width="1"/><rect x="212.0" y="172.0" width="24" height="9" rx="3" fill="rgba(255,255,255,.38)"/><rect x="240.0" y="170.0" width="28" height="28" rx="4" fill="#FFD500" stroke="rgba(0,0,0,.12)" stroke-width="1"/><rect x="242.0" y="172.0" width="24" height="9" rx="3" fill="rgba(255,255,255,.38)"/><rect x="270.0" y="170.0" width="28" height="28" rx="4" fill="#FFD500" stroke="rgba(0,0,0,.12)" stroke-width="1"/><rect x="272.0" y="172.0" width="24" height="9" rx="3" fill="rgba(255,255,255,.38)"/><rect x="300.0" y="170.0" width="28" height="28" rx="4" fill="#FFD500" stroke="rgba(0,0,0,.12)" stroke-width="1"/><rect x="302.0" y="172.0" width="24" height="9" rx="3" fill="rgba(255,255,255,.38)"/><rect x="330.0" y="170.0" width="28" height="28" rx="4" fill="#FFD500" stroke="rgba(0,0,0,.12)" stroke-width="1"/><rect x="332.0" y="172.0" width="24" height="9" rx="3" fill="rgba(255,255,255,.38)"/><rect x="360.0" y="170.0" width="28" height="28" rx="4" fill="#FFD500" stroke="rgba(0,0,0,.12)" stroke-width="1"/><rect x="362.0" y="172.0" width="24" height="9" rx="3" fill="rgba(255,255,255,.38)"/><rect x="390.0" y="170.0" width="28" height="28" rx="4" fill="#FFD500" stroke="rgba(0,0,0,.12)" stroke-width="1"/><rect x="392.0" y="172.0" width="24" height="9" rx="3" fill="rgba(255,255,255,.38)"/><rect x="420.0" y="170.0" width="28" height="28" rx="4" fill="#FFD500" stroke="rgba(0,0,0,.12)" stroke-width="1"/><rect x="422.0" y="172.0" width="24" height="9" rx="3" fill="rgba(255,255,255,.38)"/><rect x="450.0" y="170.0" width="28" height="28" rx="4" fill="#FFD500" stroke="rgba(0,0,0,.12)" stroke-width="1"/><rect x="452.0" y="172.0" width="24" height="9" rx="3" fill="rgba(255,255,255,.38)"/><rect x="150.0" y="200.0" width="28" height="28" rx="4" fill="#FFD500" stroke="rgba(0,0,0,.12)" stroke-width="1"/><rect x="152.0" y="202.0" width="24" height="9" rx="3" fill="rgba(255,255,255,.38)"/><rect x="180.0" y="200.0" width="28" height="28" rx="4" fill="#FFD500" stroke="rgba(0,0,0,.12)" stroke-width="1"/><rect x="182.0" y="202.0" width="24" height="9" rx="3" fill="rgba(255,255,255,.38)"/><rect x="210.0" y="200.0" width="28" height="28" rx="4" fill="#FFD500" stroke="rgba(0,0,0,.12)" stroke-width="1"/><rect x="212.0" y="202.0" width="24" height="9" rx="3" fill="rgba(255,255,255,.38)"/><rect x="240.0" y="200.0" width="28" height="28" rx="4" fill="#FFD500" stroke="rgba(0,0,0,.12)" stroke-width="1"/><rect x="242.0" y="202.0" width="24" height="9" rx="3" fill="rgba(255,255,255,.38)"/><rect x="270.0" y="200.0" width="28" height="28" rx="4" fill="#FFD500" stroke="rgba(0,0,0,.12)" stroke-width="1"/><rect x="272.0" y="202.0" width="24" height="9" rx="3" fill="rgba(255,255,255,.38)"/><rect x="300.0" y="200.0" width="28" height="28" rx="4" fill="#FFD500" stroke="rgba(0,0,0,.12)" stroke-width="1"/><rect x="302.0" y="202.0" width="24" height="9" rx="3" fill="rgba(255,255,255,.38)"/><rect x="330.0" y="200.0" width="28" height="28" rx="4" fill="#FFD500" stroke="rgba(0,0,0,.12)" stroke-width="1"/><rect x="332.0" y="202.0" width="24" height="9" rx="3" fill="rgba(255,255,255,.38)"/><rect x="360.0" y="200.0" width="28" height="28" rx="4" fill="#FFD500" stroke="rgba(0,0,0,.12)" stroke-width="1"/><rect x="362.0" y="202.0" width="24" height="9" rx="3" fill="rgba(255,255,255,.38)"/><rect x="390.0" y="200.0" width="28" height="28" rx="4" fill="#FFD500" stroke="rgba(0,0,0,.12)" stroke-width="1"/><rect x="392.0" y="202.0" width="24" height="9" rx="3" fill="rgba(255,255,255,.38)"/><rect x="420.0" y="200.0" width="28" height="28" rx="4" fill="#FFD500" stroke="rgba(0,0,0,.12)" stroke-width="1"/><rect x="422.0" y="202.0" width="24" height="9" rx="3" fill="rgba(255,255,255,.38)"/><rect x="180.0" y="230.0" width="28" height="28" rx="4" fill="#FFD500" stroke="rgba(0,0,0,.12)" stroke-width="1"/><rect x="182.0" y="232.0" width="24" height="9" rx="3" fill="rgba(255,255,255,.38)"/><rect x="210.0" y="230.0" width="28" height="28" rx="4" fill="#FFD500" stroke="rgba(0,0,0,.12)" stroke-width="1"/><rect x="212.0" y="232.0" width="24" height="9" rx="3" fill="rgba(255,255,255,.38)"/><rect x="240.0" y="230.0" width="28" height="28" rx="4" fill="#FFD500" stroke="rgba(0,0,0,.12)" stroke-width="1"/><rect x="242.0" y="232.0" width="24" height="9" rx="3" fill="rgba(255,255,255,.38)"/><rect x="270.0" y="230.0" width="28" height="28" rx="4" fill="#FFD500" stroke="rgba(0,0,0,.12)" stroke-width="1"/><rect x="272.0" y="232.0" width="24" height="9" rx="3" fill="rgba(255,255,255,.38)"/><rect x="300.0" y="230.0" width="28" height="28" rx="4" fill="#FFD500" stroke="rgba(0,0,0,.12)" stroke-width="1"/><rect x="302.0" y="232.0" width="24" height="9" rx="3" fill="rgba(255,255,255,.38)"/><rect x="330.0" y="230.0" width="28" height="28" rx="4" fill="#FFD500" stroke="rgba(0,0,0,.12)" stroke-width="1"/><rect x="332.0" y="232.0" width="24" height="9" rx="3" fill="rgba(255,255,255,.38)"/><rect x="360.0" y="230.0" width="28" height="28" rx="4" fill="#FFD500" stroke="rgba(0,0,0,.12)" stroke-width="1"/><rect x="362.0" y="232.0" width="24" height="9" rx="3" fill="rgba(255,255,255,.38)"/><rect x="390.0" y="230.0" width="28" height="28" rx="4" fill="#FFD500" stroke="rgba(0,0,0,.12)" stroke-width="1"/><rect x="392.0" y="232.0" width="24" height="9" rx="3" fill="rgba(255,255,255,.38)"/><rect x="210.0" y="260.0" width="28" height="28" rx="4" fill="#FFD500" stroke="rgba(0,0,0,.12)" stroke-width="1"/><rect x="212.0" y="262.0" width="24" height="9" rx="3" fill="rgba(255,255,255,.38)"/><rect x="240.0" y="260.0" width="28" height="28" rx="4" fill="#FFD500" stroke="rgba(0,0,0,.12)" stroke-width="1"/><rect x="242.0" y="262.0" width="24" height="9" rx="3" fill="rgba(255,255,255,.38)"/><rect x="270.0" y="260.0" width="28" height="28" rx="4" fill="#FFD500" stroke="rgba(0,0,0,.12)" stroke-width="1"/><rect x="272.0" y="262.0" width="24" height="9" rx="3" fill="rgba(255,255,255,.38)"/><rect x="300.0" y="260.0" width="28" height="28" rx="4" fill="#FFD500" stroke="rgba(0,0,0,.12)" stroke-width="1"/><rect x="302.0" y="262.0" width="24" height="9" rx="3" fill="rgba(255,255,255,.38)"/><rect x="330.0" y="260.0" width="28" height="28" rx="4" fill="#FFD500" stroke="rgba(0,0,0,.12)" stroke-width="1"/><rect x="332.0" y="262.0" width="24" height="9" rx="3" fill="rgba(255,255,255,.38)"/><rect x="360.0" y="260.0" width="28" height="28" rx="4" fill="#FFD500" stroke="rgba(0,0,0,.12)" stroke-width="1"/><rect x="362.0" y="262.0" width="24" height="9" rx="3" fill="rgba(255,255,255,.38)"/><rect x="180.0" y="290.0" width="28" height="28" rx="4" fill="#FFD500" stroke="rgba(0,0,0,.12)" stroke-width="1"/><rect x="182.0" y="292.0" width="24" height="9" rx="3" fill="rgba(255,255,255,.38)"/><rect x="210.0" y="290.0" width="28" height="28" rx="4" fill="#FFD500" stroke="rgba(0,0,0,.12)" stroke-width="1"/><rect x="212.0" y="292.0" width="24" height="9" rx="3" fill="rgba(255,255,255,.38)"/><rect x="240.0" y="290.0" width="28" height="28" rx="4" fill="#FFD500" stroke="rgba(0,0,0,.12)" stroke-width="1"/><rect x="242.0" y="292.0" width="24" height="9" rx="3" fill="rgba(255,255,255,.38)"/><rect x="330.0" y="290.0" width="28" height="28" rx="4" fill="#FFD500" stroke="rgba(0,0,0,.12)" stroke-width="1"/><rect x="332.0" y="292.0" width="24" height="9" rx="3" fill="rgba(255,255,255,.38)"/><rect x="360.0" y="290.0" width="28" height="28" rx="4" fill="#FFD500" stroke="rgba(0,0,0,.12)" stroke-width="1"/><rect x="362.0" y="292.0" width="24" height="9" rx="3" fill="rgba(255,255,255,.38)"/><rect x="390.0" y="290.0" width="28" height="28" rx="4" fill="#FFD500" stroke="rgba(0,0,0,.12)" stroke-width="1"/><rect x="392.0" y="292.0" width="24" height="9" rx="3" fill="rgba(255,255,255,.38)"/><rect x="150.0" y="320.0" width="28" height="28" rx="4" fill="#FFD500" stroke="rgba(0,0,0,.12)" stroke-width="1"/><rect x="152.0" y="322.0" width="24" height="9" rx="3" fill="rgba(255,255,255,.38)"/><rect x="180.0" y="320.0" width="28" height="28" rx="4" fill="#FFD500" stroke="rgba(0,0,0,.12)" stroke-width="1"/><rect x="182.0" y="322.0" width="24" height="9" rx="3" fill="rgba(255,255,255,.38)"/><rect x="210.0" y="320.0" width="28" height="28" rx="4" fill="#FFD500" stroke="rgba(0,0,0,.12)" stroke-width="1"/><rect x="212.0" y="322.0" width="24" height="9" rx="3" fill="rgba(255,255,255,.38)"/><rect x="360.0" y="320.0" width="28" height="28" rx="4" fill="#FFD500" stroke="rgba(0,0,0,.12)" stroke-width="1"/><rect x="362.0" y="322.0" width="24" height="9" rx="3" fill="rgba(255,255,255,.38)"/><rect x="390.0" y="320.0" width="28" height="28" rx="4" fill="#FFD500" stroke="rgba(0,0,0,.12)" stroke-width="1"/><rect x="392.0" y="322.0" width="24" height="9" rx="3" fill="rgba(255,255,255,.38)"/><rect x="420.0" y="320.0" width="28" height="28" rx="4" fill="#FFD500" stroke="rgba(0,0,0,.12)" stroke-width="1"/><rect x="422.0" y="322.0" width="24" height="9" rx="3" fill="rgba(255,255,255,.38)"/><rect x="120.0" y="350.0" width="28" height="28" rx="4" fill="#FFD500" stroke="rgba(0,0,0,.12)" stroke-width="1"/><rect x="122.0" y="352.0" width="24" height="9" rx="3" fill="rgba(255,255,255,.38)"/><rect x="150.0" y="350.0" width="28" height="28" rx="4" fill="#FFD500" stroke="rgba(0,0,0,.12)" stroke-width="1"/><rect x="152.0" y="352.0" width="24" height="9" rx="3" fill="rgba(255,255,255,.38)"/><rect x="180.0" y="350.0" width="28" height="28" rx="4" fill="#FFD500" stroke="rgba(0,0,0,.12)" stroke-width="1"/><rect x="182.0" y="352.0" width="24" height="9" rx="3" fill="rgba(255,255,255,.38)"/><rect x="390.0" y="350.0" width="28" height="28" rx="4" fill="#FFD500" stroke="rgba(0,0,0,.12)" stroke-width="1"/><rect x="392.0" y="352.0" width="24" height="9" rx="3" fill="rgba(255,255,255,.38)"/><rect x="420.0" y="350.0" width="28" height="28" rx="4" fill="#FFD500" stroke="rgba(0,0,0,.12)" stroke-width="1"/><rect x="422.0" y="352.0" width="24" height="9" rx="3" fill="rgba(255,255,255,.38)"/><rect x="450.0" y="350.0" width="28" height="28" rx="4" fill="#FFD500" stroke="rgba(0,0,0,.12)" stroke-width="1"/><rect x="452.0" y="352.0" width="24" height="9" rx="3" fill="rgba(255,255,255,.38)"/><text x="300.0" y="545" text-anchor="middle" font-family="Baloo 2, sans-serif" font-size="34" font-weight="800" fill="#20232A">星星摆件</text>
</svg>
