<svg xmlns="http://www.w3.org/2000/svg" viewBox="0 0 600 600" width="600" height="600" role="img">
<rect width="600" height="600" rx="22" fill="#FFF7EC"/>
<rect width="600" height="600" rx="22" fill="#FFF7EC"/><rect x="40" y="40" width="520" height="440" rx="18" fill="#FFFFFF" stroke="#E3000B" stroke-width="6"/><rect x="195.0" y="110.0" width="28" height="28" rx="4" fill="#20232A" stroke="rgba(0,0,0,.12)" stroke-width="1"/><rect x="197.0" y="112.0" width="24" height="9" rx="3" fill="rgba(255,255,255,.38)"/><rect x="225.0" y="110.0" width="28" height="28" rx="4" fill="#20232A" stroke="rgba(0,0,0,.12)" stroke-width="1"/><rect x="227.0" y="112.0" width="24" height="9" rx="3" fill="rgba(255,255,255,.38)"/><rect x="255.0" y="110.0" width="28" height="28" rx="4" fill="#20232A" stroke="rgba(0,0,0,.12)" stroke-width="1"/><rect x="257.0" y="112.0" width="24" height="9" rx="3" fill="rgba(255,255,255,.38)"/><rect x="315.0" y="110.0" width="28" height="28" rx="4" fill="#20232A" stroke="rgba(0,0,0,.12)" stroke-width="1"/><rect x="317.0" y="112.0" width="24" height="9" rx="3" fill="rgba(255,255,255,.38)"/><rect x="345.0" y="110.0" width="28" height="28" rx="4" fill="#20232A" stroke="rgba(0,0,0,.12)" stroke-width="1"/><rect x="347.0" y="112.0" width="24" height="9" rx="3" fill="rgba(255,255,255,.38)"/><rect x="375.0" y="110.0" width="28" height="28" rx="4" fill="#20232A" stroke="rgba(0,0,0,.12)" stroke-width="1"/><rect x="377.0" y="112.0" width="24" height="9" rx="3" fill="rgba(255,255,255,.38)"/><rect x="165.0" y="140.0" width="28" height="28" rx="4" fill="#20232A" stroke="rgba(0,0,0,.12)" stroke-width="1"/><rect x="167.0" y="142.0" width="24" height="9" rx="3" fill="rgba(255,255,255,.38)"/><rect x="195.0" y="140.0" width="28" height="28" rx="4" fill="#20232A" stroke="rgba(0,0,0,.12)" stroke-width="1"/><rect x="197.0" y="142.0" width="24" height="9" rx="3" fill="rgba(255,255,255,.38)"/><rect x="225.0" y="140.0" width="28" height="28" rx="4" fill="#20232A" stroke="rgba(0,0,0,.12)" stroke-width="1"/><rect x="227.0" y="142.0" width="24" height="9" rx="3" fill="rgba(255,255,255,.38)"/><rect x="255.0" y="140.0" width="28" height="28" rx="4" fill="#20232A" stroke="rgba(0,0,0,.12)" stroke-width="1"/><rect x="257.0" y="142.0" width="24" height="9" rx="3" fill="rgba(255,255,255,.38)"/><rect x="285.0" y="140.0" width="28" height="28" rx="4" fill="#20232A" stroke="rgba(0,0,0,.12)" stroke-width="1"/><rect x="287.0" y="142.0" width="24" height="9" rx="3" fill="rgba(255,255,255,.38)"/><rect x="315.0" y="140.0" width="28" height="28" rx="4" fill="#20232A" stroke="rgba(0,0,0,.12)" stroke-width="1"/><rect x="317.0" y="142.0" width="24" height="9" rx="3" fill="rgba(255,255,255,.38)"/><rect x="345.0" y="140.0" width="28" height="28" rx="4" fill="#20232A" stroke="rgba(0,0,0,.12)" stroke-width="1"/><rect x="347.0" y="142.0" width="24" height="9" rx="3" fill="rgba(255,255,255,.38)"/><rect x="375.0" y="140.0" width="28" height="28" rx="4" fill="#20232A" stroke="rgba(0,0,0,.12)" stroke-width="1"/><rect x="377.0" y="142.0" width="24" height="9" rx="3" fill="rgba(255,255,255,.38)"/><rect x="405.0" y="140.0" width="28" height="28" rx="4" fill="#20232A" stroke="rgba(0,0,0,.12)" stroke-width="1"/><rect x="407.0" y="142.0" width="24" height="9" rx="3" fill="rgba(255,255,255,.38)"/><rect x="135.0" y="170.0" width="28" height="28" rx="4" fill="#20232A" stroke="rgba(0,0,0,.12)" stroke-width="1"/><rect x="137.0" y="172.0" width="24" height="9" rx="3" fill="rgba(255,255,255,.38)"/><rect x="165.0" y="170.0" width="28" height="28" rx="4" fill="#20232A" stroke="rgba(0,0,0,.12)" stroke-width="1"/><rect x="167.0" y="172.0" width="24" height="9" rx="3" fill="rgba(255,255,255,.38)"/><rect x="195.0" y="170.0" width="28" height="28" rx="4" fill="#FFD500" stroke="rgba(0,0,0,.12)" stroke-width="1"/><rect x="197.0" y="172.0" width="24" height="9" rx="3" fill="rgba(255,255,255,.38)"/><rect x="225.0" y="170.0" width="28" height="28" rx="4" fill="#FFD500" stroke="rgba(0,0,0,.12)" stroke-width="1"/><rect x="227.0" y="172.0" width="24" height="9" rx="3" fill="rgba(255,255,255,.38)"/><rect x="255.0" y="170.0" width="28" height="28" rx="4" fill="#FFD500" stroke="rgba(0,0,0,.12)" stroke-width="1"/><rect x="257.0" y="172.0" width="24" height="9" rx="3" fill="rgba(255,255,255,.38)"/><rect x="285.0" y="170.0" width="28" height="28" rx="4" fill="#FFD500" stroke="rgba(0,0,0,.12)" stroke-width="1"/><rect x="287.0" y="172.0" width="24" height="9" rx="3" fill="rgba(255,255,255,.38)"/><rect x="315.0" y="170.0" width="28" height="28" rx="4" fill="#FFD500" stroke="rgba(0,0,0,.12)" stroke-width="1"/><rect x="317.0" y="172.0" width="24" height="9" rx="3" fill="rgba(255,255,255,.38)"/><rect x="345.0" y="170.0" width="28" height="28" rx="4" fill="#FFD500" stroke="rgba(0,0,0,.12)" stroke-width="1"/><rect x="347.0" y="172.0" width="24" height="9" rx="3" fill="rgba(255,255,255,.38)"/><rect x="375.0" y="170.0" width="28" height="28" rx="4" fill="#FFD500" stroke="rgba(0,0,0,.12)" stroke-width="1"/><rect x="377.0" y="172.0" width="24" height="9" rx="3" fill="rgba(255,255,255,.38)"/><rect x="405.0" y="170.0" width="28" height="28" rx="4" fill="#20232A" stroke="rgba(0,0,0,.12)" stroke-width="1"/><rect x="407.0" y="172.0" width="24" height="9" rx="3" fill="rgba(255,255,255,.38)"/><rect x="435.0" y="170.0" width="28" height="28" rx="4" fill="#20232A" stroke="rgba(0,0,0,.12)" stroke-width="1"/><rect x="437.0" y="172.0" width="24" height="9" rx="3" fill="rgba(255,255,255,.38)"/><rect x="135.0" y="200.0" width="28" height="28" rx="4" fill="#20232A" stroke="rgba(0,0,0,.12)" stroke-width="1"/><rect x="137.0" y="202.0" width="24" height="9" rx="3" fill="rgba(255,255,255,.38)"/><rect x="165.0" y="200.0" width="28" height="28" rx="4" fill="#FFD500" stroke="rgba(0,0,0,.12)" stroke-width="1"/><rect x="167.0" y="202.0" width="24" height="9" rx="3" fill="rgba(255,255,255,.38)"/><rect x="195.0" y="200.0" width="28" height="28" rx="4" fill="#FFF7EC" stroke="rgba(0,0,0,.12)" stroke-width="1"/><rect x="197.0" y="202.0" width="24" height="9" rx="3" fill="rgba(255,255,255,.38)"/><rect x="225.0" y="200.0" width="28" height="28" rx="4" fill="#FFF7EC" stroke="rgba(0,0,0,.12)" stroke-width="1"/><rect x="227.0" y="202.0" width="24" height="9" rx="3" fill="rgba(255,255,255,.38)"/><rect x="255.0" y="200.0" width="28" height="28" rx="4" fill="#20232A" stroke="rgba(0,0,0,.12)" stroke-width="1"/><rect x="257.0" y="202.0" width="24" height="9" rx="3" fill="rgba(255,255,255,.38)"/><rect x="285.0" y="200.0" width="28" height="28" rx="4" fill="#20232A" stroke="rgba(0,0,0,.12)" stroke-width="1"/><rect x="287.0" y="202.0" width="24" height="9" rx="3" fill="rgba(255,255,255,.38)"/><rect x="315.0" y="200.0" width="28" height="28" rx="4" fill="#FFF7EC" stroke="rgba(0,0,0,.12)" stroke-width="1"/><rect x="317.0" y="202.0" width="24" height="9" rx="3" fill="rgba(255,255,255,.38)"/><rect x="345.0" y="200.0" width="28" height="28" rx="4" fill="#FFD500" stroke="rgba(0,0,0,.12)" stroke-width="1"/><rect x="347.0" y="202.0" width="24" height="9" rx="3" fill="rgba(255,255,255,.38)"/><rect x="375.0" y="200.0" width="28" height="28" rx="4" fill="#FFD500" stroke="rgba(0,0,0,.12)" stroke-width="1"/><rect x="377.0" y="202.0" width="24" height="9" rx="3" fill="rgba(255,255,255,.38)"/><rect x="405.0" y="200.0" width="28" height="28" rx="4" fill="#20232A" stroke="rgba(0,0,0,.12)" stroke-width="1"/><rect x="407.0" y="202.0" width="24" height="9" rx="3" fill="rgba(255,255,255,.38)"/><rect x="135.0" y="230.0" width="28" height="28" rx="4" fill="#20232A" stroke="rgba(0,0,0,.12)" stroke-width="1"/><rect x="137.0" y="232.0" width="24" height="9" rx="3" fill="rgba(255,255,255,.38)"/><rect x="165.0" y="230.0" width="28" height="28" rx="4" fill="#FFD500" stroke="rgba(0,0,0,.12)" stroke-width="1"/><rect x="167.0" y="232.0" width="24" height="9" rx="3" fill="rgba(255,255,255,.38)"/><rect x="195.0" y="230.0" width="28" height="28" rx="4" fill="#FFF7EC" stroke="rgba(0,0,0,.12)" stroke-width="1"/><rect x="197.0" y="232.0" width="24" height="9" rx="3" fill="rgba(255,255,255,.38)"/><rect x="225.0" y="230.0" width="28" height="28" rx="4" fill="#FFF7EC" stroke="rgba(0,0,0,.12)" stroke-width="1"/><rect x="227.0" y="232.0" width="24" height="9" rx="3" fill="rgba(255,255,255,.38)"/><rect x="255.0" y="230.0" width="28" height="28" rx="4" fill="#20232A" stroke="rgba(0,0,0,.12)" stroke-width="1"/><rect x="257.0" y="232.0" width="24" height="9" rx="3" fill="rgba(255,255,255,.38)"/><rect x="285.0" y="230.0" width="28" height="28" rx="4" fill="#20232A" stroke="rgba(0,0,0,.12)" stroke-width="1"/><rect x="287.0" y="232.0" width="24" height="9" rx="3" fill="rgba(255,255,255,.38)"/><rect x="315.0" y="230.0" width="28" height="28" rx="4" fill="#FFF7EC" stroke="rgba(0,0,0,.12)" stroke-width="1"/><rect x="317.0" y="232.0" width="24" height="9" rx="3" fill="rgba(255,255,255,.38)"/><rect x="345.0" y="230.0" width="28" height="28" rx="4" fill="#FFD500" stroke="rgba(0,0,0,.12)" stroke-width="1"/><rect x="347.0" y="232.0" width="24" height="9" rx="3" fill="rgba(255,255,255,.38)"/><rect x="375.0" y="230.0" width="28" height="28" rx="4" fill="#FFD500" stroke="rgba(0,0,0,.12)" stroke-width="1"/><rect x="377.0" y="232.0" width="24" height="9" rx="3" fill="rgba(255,255,255,.38)"/><rect x="405.0" y="230.0" width="28" height="28" rx="4" fill="#20232A" stroke="rgba(0,0,0,.12)" stroke-width="1"/><rect x="407.0" y="232.0" width="24" height="9" rx="3" fill="rgba(255,255,255,.38)"/><rect x="135.0" y="260.0" width="28" height="28" rx="4" fill="#20232A" stroke="rgba(0,0,0,.12)" stroke-width="1"/><rect x="137.0" y="262.0" width="24" height="9" rx="3" fill="rgba(255,255,255,.38)"/><rect x="165.0" y="260.0" width="28" height="28" rx="4" fill="#20232A" stroke="rgba(0,0,0,.12)" stroke-width="1"/><rect x="167.0" y="262.0" width="24" height="9" rx="3" fill="rgba(255,255,255,.38)"/><rect x="195.0" y="260.0" width="28" height="28" rx="4" fill="#FFD500" stroke="rgba(0,0,0,.12)" stroke-width="1"/><rect x="197.0" y="262.0" width="24" height="9" rx="3" fill="rgba(255,255,255,.38)"/><rect x="225.0" y="260.0" width="28" height="28" rx="4" fill="#FFD500" stroke="rgba(0,0,0,.12)" stroke-width="1"/><rect x="227.0" y="262.0" width="24" height="9" rx="3" fill="rgba(255,255,255,.38)"/><rect x="255.0" y="260.0" width="28" height="28" rx="4" fill="#FFD500" stroke="rgba(0,0,0,.12)" stroke-width="1"/><rect x="257.0" y="262.0" width="24" height="9" rx="3" fill="rgba(255,255,255,.38)"/><rect x="285.0" y="260.0" width="28" height="28" rx="4" fill="#FFD500" stroke="rgba(0,0,0,.12)" stroke-width="1"/><rect x="287.0" y="262.0" width="24" height="9" rx="3" fill="rgba(255,255,255,.38)"/><rect x="315.0" y="260.0" width="28" height="28" rx="4" fill="#FFD500" stroke="rgba(0,0,0,.12)" stroke-width="1"/><rect x="317.0" y="262.0" width="24" height="9" rx="3" fill="rgba(255,255,255,.38)"/><rect x="345.0" y="260.0" width="28" height="28" rx="4" fill="#FFD500" stroke="rgba(0,0,0,.12)" stroke-width="1"/><rect x="347.0" y="262.0" width="24" height="9" rx="3" fill="rgba(255,255,255,.38)"/><rect x="375.0" y="260.0" width="28" height="28" rx="4" fill="#FFD500" stroke="rgba(0,0,0,.12)" stroke-width="1"/><rect x="377.0" y="262.0" width="24" height="9" rx="3" fill="rgba(255,255,255,.38)"/><rect x="405.0" y="260.0" width="28" height="28" rx="4" fill="#20232A" stroke="rgba(0,0,0,.12)" stroke-width="1"/><rect x="407.0" y="262.0" width="24" height="9" rx="3" fill="rgba(255,255,255,.38)"/><rect x="435.0" y="260.0" width="28" height="28" rx="4" fill="#20232A" stroke="rgba(0,0,0,.12)" stroke-width="1"/><rect x="437.0" y="262.0" width="24" height="9" rx="3" fill="rgba(255,255,255,.38)"/><rect x="165.0" y="290.0" width="28" height="28" rx="4" fill="#20232A" stroke="rgba(0,0,0,.12)" stroke-width="1"/><rect x="167.0" y="292.0" width="24" height="9" rx="3" fill="rgba(255,255,255,.38)"/><rect x="195.0" y="290.0" width="28" height="28" rx="4" fill="#20232A" stroke="rgba(0,0,0,.12)" stroke-width="1"/><rect x="197.0" y="292.0" width="24" height="9" rx="3" fill="rgba(255,255,255,.38)"/><rect x="225.0" y="290.0" width="28" height="28" rx="4" fill="#20232A" stroke="rgba(0,0,0,.12)" stroke-width="1"/><rect x="227.0" y="292.0" width="24" height="9" rx="3" fill="rgba(255,255,255,.38)"/><rect x="255.0" y="290.0" width="28" height="28" rx="4" fill="#20232A" stroke="rgba(0,0,0,.12)" stroke-width="1"/><rect x="257.0" y="292.0" width="24" height="9" rx="3" fill="rgba(255,255,255,.38)"/><rect x="285.0" y="290.0" width="28" height="28" rx="4" fill="#20232A" stroke="rgba(0,0,0,.12)" stroke-width="1"/><rect x="287.0" y="292.0" width="24" height="9" rx="3" fill="rgba(255,255,255,.38)"/><rect x="315.0" y="290.0" width="28" height="28" rx="4" fill="#20232A" stroke="rgba(0,0,0,.12)" stroke-width="1"/><rect x="317.0" y="292.0" width="24" height="9" rx="3" fill="rgba(255,255,255,.38)"/><rect x="345.0" y="290.0" width="28" height="28" rx="4" fill="#20232A" stroke="rgba(0,0,0,.12)" stroke-width="1"/><rect x="347.0" y="292.0" width="24" height="9" rx="3" fill="rgba(255,255,255,.38)"/><rect x="375.0" y="290.0" width="28" height="28" rx="4" fill="#20232A" stroke="rgba(0,0,0,.12)" stroke-width="1"/><rect x="377.0" y="292.0" width="24" height="9" rx="3" fill="rgba(255,255,255,.38)"/><rect x="405.0" y="290.0" width="28" height="28" rx="4" fill="#20232A" stroke="rgba(0,0,0,.12)" stroke-width="1"/><rect x="407.0" y="292.0" width="24" height="9" rx="3" fill="rgba(255,255,255,.38)"/><rect x="195.0" y="320.0" width="28" height="28" rx="4" fill="#20232A" stroke="rgba(0,0,0,.12)" stroke-width="1"/><rect x="197.0" y="322.0" width="24" height="9" rx="3" fill="rgba(255,255,255,.38)"/><rect x="225.0" y="320.0" width="28" height="28" rx="4" fill="#20232A" stroke="rgba(0,0,0,.12)" stroke-width="1"/><rect x="227.0" y="322.0" width="24" height="9" rx="3" fill="rgba(255,255,255,.38)"/><rect x="255.0" y="320.0" width="28" height="28" rx="4" fill="#20232A" stroke="rgba(0,0,0,.12)" stroke-width="1"/><rect x="257.0" y="322.0" width="24" height="9" rx="3" fill="rgba(255,255,255,.38)"/><rect x="285.0" y="320.0" width="28" height="28" rx="4" fill="#20232A" stroke="rgba(0,0,0,.12)" stroke-width="1"/><rect x="287.0" y="322.0" width="24" height="9" rx="3" fill="rgba(255,255,255,.38)"/><rect x="315.0" y="320.0" width="28" height="28" rx="4" fill="#20232A" stroke="rgba(0,0,0,.12)" stroke-width="1"/><rect x="317.0" y="322.0" width="24" height="9" rx="3" fill="rgba(255,255,255,.38)"/><rect x="345.0" y="320.0" width="28" height="28" rx="4" fill="#20232A" stroke="rgba(0,0,0,.12)" stroke-width="1"/><rect x="347.0" y="322.0" width="24" height="9" rx="3" fill="rgba(255,255,255,.38)"/><rect x="375.0" y="320.0" width="28" height="28" rx="4" fill="#20232A" stroke="rgba(0,0,0,.12)" stroke-width="1"/><rect x="377.0" y="322.0" width="24" height="9" rx="3" fill="rgba(255,255,255,.38)"/><rect x="225.0" y="350.0" width="28" height="28" rx="4" fill="#20232A" stroke="rgba(0,0,0,.12)" stroke-width="1"/><rect x="227.0" y="352.0" width="24" height="9" rx="3" fill="rgba(255,255,255,.38)"/><rect x="285.0" y="350.0" width="28" height="28" rx="4" fill="#20232A" stroke="rgba(0,0,0,.12)" stroke-width="1"/><rect x="287.0" y="352.0" width="24" height="9" rx="3" fill="rgba(255,255,255,.38)"/><rect x="345.0" y="350.0" width="28" height="28" rx="4" fill="#20232A" stroke="rgba(0,0,0,.12)" stroke-width="1"/><rect x="347.0" y="352.0" width="24" height="9" rx="3" fill="rgba(255,255,255,.38)"/><text x="300.0" y="545" text-anchor="middle" font-family="Baloo 2, sans-serif" font-size="34" font-weight="800" fill="#20232A">猫猫钥匙扣</text>
</svg>
